<?xml version="1.0" encoding="UTF-8"?>
<svg id="Layer_2" data-name="Layer 2" xmlns="http://www.w3.org/2000/svg" viewBox="0 0 706.63 223.05">
  <g id="Layer_1-2" data-name="Layer 1">
    <g>
      <g>
        <path d="m155.06,222.39v-25.87h5.8v25.87h-5.8Z"/>
        <path d="m194.98,222.39l-14.96-18.08v18.08h-5.54v-25.87h5.29l14.96,18.08v-18.08h5.54v25.87h-5.29Z"/>
        <path d="m231.46,203.81c-.51-1.23-1.27-2.12-2.28-2.66s-2.43-.81-4.24-.81c-2.05,0-3.62.25-4.71.76s-1.63,1.24-1.63,2.21.33,1.59,1,2.03c.66.43,1.88.79,3.64,1.05l5.33.83c3.16.51,5.48,1.39,6.96,2.66,1.47,1.27,2.21,3.01,2.21,5.23,0,2.51-1.07,4.46-3.21,5.85-2.14,1.39-5.19,2.08-9.15,2.08-2.87,0-5.26-.34-7.16-1.01s-3.35-1.7-4.35-3.08c-1-1.38-1.6-3.13-1.79-5.25h5.83c.24,1.69.95,2.93,2.14,3.71,1.18.79,2.96,1.18,5.33,1.18,2.12,0,3.73-.28,4.8-.85,1.07-.57,1.61-1.41,1.61-2.52,0-.89-.36-1.59-1.07-2.1-.71-.51-1.84-.87-3.39-1.09l-4.35-.62c-3.53-.48-6.1-1.36-7.73-2.63-1.63-1.27-2.45-3.05-2.45-5.34,0-1.55.48-2.89,1.45-4.02.97-1.13,2.37-2.01,4.22-2.63s4.05-.92,6.61-.92c3.53,0,6.25.59,8.19,1.76,1.93,1.17,3.2,3.01,3.8,5.52l-5.62.65Z"/>
        <path d="m269.1,196.53h5.8v15c0,3.86-1.04,6.75-3.13,8.66-2.09,1.91-5.27,2.86-9.55,2.86s-7.46-.95-9.55-2.86c-2.09-1.91-3.13-4.79-3.13-8.66v-15h5.8v15.32c0,2.22.56,3.85,1.67,4.89,1.11,1.04,2.85,1.56,5.22,1.56s4.11-.52,5.22-1.56c1.11-1.04,1.67-2.67,1.67-4.89v-15.32Z"/>
        <path d="m307.03,222.39l-5.65-9.67h-7.57v9.67h-5.58v-25.87h12.72c7.22,0,10.83,2.69,10.83,8.08,0,1.74-.4,3.19-1.21,4.35-.81,1.16-2.05,2.06-3.71,2.72l6.52,10.72h-6.34Zm-6.52-14.13c1.91,0,3.31-.3,4.22-.89.91-.59,1.36-1.53,1.36-2.81s-.43-2.2-1.29-2.75c-.86-.56-2.26-.83-4.22-.83h-6.77v7.28h6.7Z"/>
        <path d="m345.72,222.39l-2.57-5.87h-13.04l-2.54,5.87h-5.98l11.85-25.87h6.56l11.85,25.87h-6.12Zm-9.09-20.83l-4.56,10.36h9.13l-4.56-10.36Z"/>
        <path d="m383.26,222.39l-14.96-18.08v18.08h-5.54v-25.87h5.29l14.96,18.08v-18.08h5.54v25.87h-5.29Z"/>
        <path d="m428.43,213.45c-.41,3.07-1.79,5.43-4.15,7.1-2.35,1.67-5.46,2.5-9.33,2.5-2.9,0-5.43-.53-7.61-1.59s-3.85-2.62-5.04-4.67c-1.18-2.05-1.78-4.49-1.78-7.32s.57-5.04,1.72-7.08c1.15-2.04,2.81-3.63,4.98-4.78,2.17-1.15,4.73-1.72,7.68-1.72,7.17,0,11.53,2.96,13.08,8.88l-5.76.69c-.6-1.71-1.48-2.95-2.63-3.7-1.15-.75-2.71-1.12-4.69-1.12-2.58,0-4.63.79-6.12,2.35-1.5,1.57-2.25,3.73-2.25,6.48s.75,4.94,2.25,6.5c1.5,1.56,3.57,2.34,6.23,2.34,2.15,0,3.84-.4,5.07-1.2,1.23-.8,2.05-2.02,2.46-3.66h5.87Z"/>
        <path d="m440.39,222.39v-25.87h21.66v4.75h-15.87v5.43h15.11v4.75h-15.11v6.2h16.66l-.72,4.75h-21.74Z"/>
        <path d="m513.53,222.39l-2.57-5.87h-13.04l-2.54,5.87h-5.98l11.85-25.87h6.56l11.85,25.87h-6.12Zm-9.09-20.83l-4.56,10.36h9.13l-4.56-10.36Z"/>
        <path d="m550.23,212.76h-7.14v-4.49h12.5v11.23c-1.62,1.14-3.51,2.01-5.69,2.63-2.17.62-4.46.92-6.85.92-4.83,0-8.6-1.19-11.32-3.57-2.72-2.38-4.08-5.68-4.08-9.91,0-2.75.59-5.16,1.76-7.21,1.17-2.05,2.87-3.65,5.11-4.78,2.23-1.13,4.87-1.7,7.92-1.7,3.33,0,6.09.69,8.26,2.06s3.63,3.35,4.38,5.91l-5.8.69c-.51-1.35-1.33-2.35-2.48-2.99-1.15-.64-2.65-.96-4.51-.96-2.75,0-4.89.77-6.39,2.3-1.51,1.53-2.26,3.73-2.26,6.58s.8,5.13,2.39,6.63c1.59,1.5,3.94,2.25,7.03,2.25,2.92,0,5.31-.46,7.17-1.38v-4.2Z"/>
        <path d="m568.2,222.39v-25.87h21.66v4.75h-15.87v5.43h15.11v4.75h-15.11v6.2h16.66l-.72,4.75h-21.74Z"/>
        <path d="m623.23,222.39l-14.96-18.08v18.08h-5.54v-25.87h5.29l14.96,18.08v-18.08h5.54v25.87h-5.29Z"/>
        <path d="m668.4,213.45c-.41,3.07-1.79,5.43-4.15,7.1-2.35,1.67-5.46,2.5-9.33,2.5-2.9,0-5.43-.53-7.61-1.59s-3.85-2.62-5.04-4.67c-1.18-2.05-1.78-4.49-1.78-7.32s.57-5.04,1.72-7.08c1.15-2.04,2.81-3.63,4.98-4.78,2.17-1.15,4.73-1.72,7.68-1.72,7.17,0,11.53,2.96,13.08,8.88l-5.76.69c-.6-1.71-1.48-2.95-2.63-3.7-1.15-.75-2.71-1.12-4.69-1.12-2.58,0-4.63.79-6.12,2.35-1.5,1.57-2.25,3.73-2.25,6.48s.75,4.94,2.25,6.5c1.5,1.56,3.57,2.34,6.23,2.34,2.15,0,3.84-.4,5.07-1.2,1.23-.8,2.05-2.02,2.46-3.66h5.87Z"/>
        <path d="m687.42,222.39v-10.32l-10.94-15.54h6.48l7.43,10.87,7.5-10.87h6.27l-10.94,15.54v10.32h-5.8Z"/>
      </g>
      <path d="m184.59,122.53v-29.49c0-1.74-1.43-3.17-3.17-3.17h-8.92c-1.74,0-3.17,1.43-3.17,3.17v63.39c0,1.75,1.42,3.17,3.17,3.17h8.92c1.74,0,3.17-1.43,3.17-3.17v-16.35l17.83-8.25v30.82c0,6.25-5.07,11.32-11.32,11.32h-27.85c-6.25,0-11.37-5.12-11.37-11.37v-75.9c0-6.3,5.11-11.37,11.37-11.37h27.81c6.25,0,11.37,5.07,11.37,11.37v27.58l-17.83,8.25Z"/>
      <path d="m438.87,95.92c0-7.52,2.63-14.8,7.44-20.58h0s-30.8,0-30.8,0h0c4.81,5.79,7.44,13.07,7.44,20.59v41.48s-27.29-56.13-27.29-56.13c-1.77-3.64-5.46-5.95-9.5-5.95h-16.75,0c4.81,5.79,7.44,13.07,7.44,20.59v57.47c0,7.52-2.63,14.8-7.44,20.59h0s30.8,0,30.8,0h0c-4.81-5.78-7.44-13.07-7.44-20.59v-41.75s27.3,56.36,27.3,56.36c1.76,3.64,5.44,5.95,9.48,5.96l9.32.02v-78.05Z"/>
      <path d="m274.12,153.38v-57.46c0-7.52,2.63-14.8,7.44-20.59h-30.8c4.81,5.78,7.44,13.07,7.44,20.59v28.86l-21.99,10.18v-39.04c0-7.52,2.63-14.8,7.44-20.59h-30.8c4.81,5.78,7.44,13.07,7.44,20.59v57.46c0,7.52-2.63,14.8-7.44,20.59h0s30.8,0,30.8,0h0c-4.81-5.79-7.44-13.07-7.44-20.59v-.87l21.99-10.18v11.05c0,7.52-2.63,14.8-7.44,20.59h0s30.8,0,30.8,0h0c-4.81-5.79-7.44-13.07-7.44-20.59Z"/>
      <path d="m360.72,170.09c-2.3-2.77-3.89-6.06-4.63-9.58l-14.37-68.47c-1.24-5.91.29-12.07,4.15-16.72h-37.93c3.86,4.65,5.39,10.8,4.15,16.72l-14.37,68.47c-.74,3.52-2.33,6.81-4.63,9.58l-3.18,3.83h29.82c-4.31-5.19-6.02-12.06-4.63-18.66l.58-2.75,20.49-9.48,2.57,12.23c1.39,6.6-.32,13.47-4.63,18.66h29.82l-3.18-3.83Zm-40.98-37.02l7.16-34.09,5.89,28.05-13.05,6.04Z"/>
      <path d="m498.18,75.33h-45.34,0c4.81,5.78,7.44,13.07,7.44,20.59v57.46c0,7.52-2.63,14.81-7.44,20.59h0s45.34,0,45.34,0c5.84,0,10.57-4.73,10.57-10.57v-77.51c0-5.84-4.73-10.57-10.57-10.57Zm-5.71,81.1c0,1.75-1.42,3.17-3.17,3.17h-11.54v-69.9h11.54c1.75,0,3.17,1.42,3.17,3.17v63.56Z"/>
      <path d="m567.73,139.34l-17.12,9.42v11.42h-8.25v-64.25c0-7.52,2.63-14.81,7.44-20.59h0s-30.8,0-30.8,0h0c4.81,5.78,7.44,13.07,7.44,20.59v57.46c0,7.52-2.63,14.81-7.44,20.59h44.51c2.33,0,4.23-1.89,4.23-4.23v-30.41Z"/>
      <path d="m575.65,75.33h0c4.81,5.78,7.44,13.07,7.44,20.59v57.46c0,7.52-2.63,14.81-7.44,20.59h0s49.38,0,49.38,0c2.33,0,4.23-1.89,4.23-4.23v-27.53l-16.82,9.94v7.85h-13.42v-17.35l18.55-10.95v-19.02l-18.55,10.95v-34.33h13.42v17.78l16.82-9.94v-17.59c0-2.33-1.89-4.23-4.23-4.23h-49.38Z"/>
      <path d="m698.83,162.55l-12.15-31.61,6.03-3.56c3.22-1.9,5.19-5.36,5.19-9.1v-32.39c0-5.84-4.73-10.57-10.57-10.57h-46.9,0c4.81,5.78,7.44,13.07,7.44,20.59v62.24c0,4.43-1.55,8.72-4.38,12.13l-3.06,3.68h30.71l-2.97-3.57c-2.83-3.41-4.38-7.7-4.38-12.13v-13.82l6.81-4.02,5.89,14.09c2.73,6.52,1.6,14.01-2.91,19.45h0s33.04,0,33.04,0l-5.12-6.65c-1.12-1.45-2.02-3.06-2.68-4.77Zm-18.42-46.93l-16.61,9.81v-36.3h15c1.75,0,3.17,1.42,3.17,3.17v20.59c0,1.12-.59,2.16-1.56,2.73Z"/>
      <path d="m88.74,75.22v133.01c4.49-3.46,26.85-20.85,26.85-53.65v-79.37h-26.85Z"/>
      <path d="m0,75.22v79.37c0,51.76,50.51,66.58,57.8,68.33,8.54-2.05,22.79-9.12,25.28-10.71v-40.98h-25.28v23.66c-24.64-9.09-30.95-27.87-30.95-40.3v-52.51h30.95v14.17h25.28v-41.02H0Z"/>
      <rect x="99.9" y="63.24" width="4.54" height="16.62"/>
      <path d="m108.53,17.67c-2.52-4.07-4.36-8.57-4.18-13.44.05-1.4.35-2.79.55-4.23-2.3,2.55-4.03,5.38-5.21,8.57-1.38,3.76-1.99,7.87-2.06,11.87-.07,4.19.78,8.29.4,12.48-.19,2.1-1.33,4.51-3.8,4.39-3.6-.17-6.48-4.84-7.86-7.67-3.46,3.17-5.7,7.45-6.67,12.02-2.29,10.74,2.48,22.61,12.73,27.3.5.23,1.01.43,1.51.62-1.09-1.16-1.94-2.57-2.43-4.17-.61-2-.63-4.22,0-6.23,1.19-3.83,4.78-7.38,7.38-11.58,1.21-1.95,2.09-4.11,2.01-6.44-.02-.67-.17-1.34-.26-2.03,1.1,1.22,1.93,2.58,2.5,4.11.66,1.8.95,3.77.99,5.69.04,2.01-.37,3.97-.19,5.98.09,1.01.64,2.16,1.82,2.1,1.72-.08,3.1-2.32,3.77-3.67,1.66,1.52,2.73,3.57,3.2,5.76.76,3.59-.12,7.44-2.39,10.2,6.28-2.48,11.51-7.61,13.6-14.47,4.67-15.32-9.92-28.32-15.39-37.16Z"/>
    </g>
  </g>
</svg>